Coordinates
version=1
nRows=19
nColumns=24
inDegrees=yes

Units are S.I. units (second, meters, Newtons, ...)
Angles are in degrees.

endheader
time	pelvis_tilt	pelvis_list	pelvis_rotation	pelvis_tx	pelvis_ty	pelvis_tz	hip_flexion_r	hip_adduction_r	hip_rotation_r	knee_angle_r	ankle_angle_r	subtalar_angle_r	mtp_angle_r	hip_flexion_l	hip_adduction_l	hip_rotation_l	knee_angle_l	ankle_angle_l	subtalar_angle_l	mtp_angle_l	lumbar_extension	lumbar_bending	lumbar_rotation
      1.08733333	      0.14652200	     -7.58709566	     -7.62125646	     -0.06655576	      0.99577646	      0.28877829	    -15.90654490	      7.28497282	     -1.87069188	     -4.91588799	      7.01897525	     -3.68117471	      0.50264810	     22.33494224	    -10.60776018	    -10.42580147	      1.23264217	      5.21124594	     -7.57079926	    -13.98376596	    -11.09919925	      8.75396961	      9.78870298
      1.09150000	      0.24165492	     -7.47266374	     -7.86372413	     -0.06083243	      0.99541486	      0.28904569	    -16.20977636	      7.01212199	     -1.67886609	     -5.18270963	      7.06542952	     -3.59109483	      0.66325436	     22.23923867	    -10.57235761	    -10.44926738	      0.74002468	      5.12564405	     -7.82371285	    -13.93206942	    -11.19466073	      8.49109201	     10.06698936
      1.09566667	      0.33751854	     -7.34114167	     -8.11712807	     -0.05508348	      0.99510905	      0.28933561	    -16.49826837	      6.71686451	     -1.46446436	     -5.47017517	      7.08956615	     -3.51971466	      0.83386645	     22.14030026	    -10.52323166	    -10.48833957	      0.19482100	      5.02365795	     -8.08937716	    -13.87041487	    -11.29622892	      8.20685564	     10.32424974
      1.09983333	      0.43324461	     -7.20552994	     -8.36849049	     -0.04932314	      0.99484942	      0.28961351	    -16.76933676	      6.41493326	     -1.25047603	     -5.78200100	      7.08039798	     -3.46517146	      1.01829367	     22.04456099	    -10.46739945	    -10.53491903	     -0.39512680	      4.87678901	     -8.38464855	    -13.79797101	    -11.39612243	      7.91607739	     10.59499847
      1.10400000	      0.52827357	     -7.05497680	     -8.61746620	     -0.04351597	      0.99463273	      0.28986652	    -17.03066674	      6.09431894	     -1.02817355	     -6.10447192	      7.05777798	     -3.41124762	      1.19209342	     21.94688862	    -10.39112342	    -10.59844513	     -1.01293016	      4.69763273	     -8.71046379	    -13.72626002	    -11.48619109	      7.61825429	     10.83739681
      1.10816667	      0.58862212	     -6.90543956	     -8.86354985	     -0.03771105	      0.99441356	      0.29009470	    -17.22726684	      5.77904217	     -0.81791983	     -6.47129291	      6.98365942	     -3.37988086	      1.33183496	     21.89018007	    -10.31591155	    -10.64700971	     -1.66117281	      4.50106860	     -9.05049492	    -13.66671488	    -11.54481332	      7.32384272	     11.04846559
      1.11233333	      0.73570467	     -6.75338908	     -9.09983644	     -0.03189689	      0.99438846	      0.29030556	    -17.50265792	      5.44502858	     -0.63405444	     -6.85098273	      6.87533819	     -3.35527657	      1.65299569	     21.71989499	    -10.22202629	    -10.74462010	     -2.27618420	      4.14995300	     -9.39964549	    -13.52073504	    -11.69425114	      6.99917896	     11.44534997
      1.11650000	      0.81791589	     -6.59116942	     -9.33434291	     -0.02603366	      0.99430896	      0.29048156	    -17.69060397	      5.11038943	     -0.44023095	     -7.26308228	      6.76434535	     -3.33482534	      1.95172376	     21.62152596	    -10.11990211	    -10.84659979	     -2.91018737	      3.78981711	     -9.78371654	    -13.38188441	    -11.75455890	      6.68417734	     11.66409734
      1.12066667	      0.84358911	     -6.43366646	     -9.55121352	     -0.02011881	      0.99418213	      0.29062407	    -17.80607280	      4.79518972	     -0.26275289	     -7.69199478	      6.56569292	     -3.30756564	      2.08256957	     21.59241977	    -10.02338165	    -10.94097062	     -3.57096971	      3.47388313	    -10.14744475	    -13.32370807	    -11.73335285	      6.38715384	     11.75214257
      1.12483333	      0.88932912	     -6.27019682	     -9.74974535	     -0.01420913	      0.99414285	      0.29068915	    -17.91618880	      4.47234250	     -0.11115248	     -8.16390376	      6.37301456	     -3.30438957	      2.24128278	     21.52533425	     -9.90414328	    -11.02225152	     -4.18037946	      2.99347145	    -10.56068037	    -13.25421660	    -11.74525520	      6.08536157	     11.96453033
      1.12900000	      1.03077247	     -6.09833214	     -9.91211631	     -0.00831972	      0.99428648	      0.29062654	    -18.10175382	      4.12477642	     -0.02038906	     -8.67200670	      6.20118416	     -3.28432847	      2.64069318	     21.34813347	     -9.73908590	    -11.08544607	     -4.76571138	      2.52750900	    -11.04265851	    -13.06759844	    -11.87320767	      5.76366002	     12.30566476
      1.13316667	      1.05251297	     -5.92476816	    -10.07183924	     -0.00231475	      0.99430807	      0.29060080	    -18.15298514	      3.80536706	      0.08320846	     -9.19280041	      5.92568818	     -3.29986444	      2.93530065	     21.30600283	     -9.59846024	    -11.21643673	     -5.36936076	      2.03102257	    -11.41595403	    -12.93345513	    -11.82532281	      5.46398526	     12.38846529
      1.13733333	      1.07546217	     -5.75063054	    -10.20007211	      0.00368837	      0.99438368	      0.29046911	    -18.17476670	      3.49079743	      0.14114314	     -9.76134516	      5.60361471	     -3.31145244	      3.22268767	     21.25532577	     -9.43823884	    -11.29709320	     -5.94336912	      1.51451256	    -11.80090791	    -12.80539056	    -11.79201229	      5.17191480	     12.52546320
      1.14150000	      1.14602712	     -5.59629577	    -10.22539325	      0.00970032	      0.99453700	      0.29005617	    -18.23180832	      3.20266480	      0.04090714	    -10.33900624	      5.13226203	     -3.36830972	     11.07199373	     21.16921126	     -9.24291494	    -11.27387152	     -6.49205767	      0.93443061	    -12.23194958	     -9.17818516	    -11.82065511	      4.92832343	     12.54647185
      1.14566667	      1.14108545	     -5.43112608	    -10.31357972	      0.01575945	      0.99466676	      0.28983679	    -18.17699054	      2.91461128	      0.04920217	    -10.98817288	      4.71463516	     -3.37894660	     11.08167374	     21.14897912	     -9.09155093	    -11.40916494	     -7.06291935	      0.46758723	    -12.41850619	     -9.17260746	    -11.74568948	      4.66258825	     12.60136964
      1.14983333	      1.14439479	     -5.25716748	    -10.38244082	      0.02182510	      0.99486217	      0.28954573	    -18.09733251	      2.62104008	      0.03057489	    -11.69343363	      4.27810260	     -3.42734817	     11.10772800	     21.10660687	     -8.91577923	    -11.51117755	     -7.59863699	     -0.00587924	    -12.68123439	     -9.16225794	    -11.68050261	      4.38945571	     12.67649092
      1.15400000	      1.15239727	     -5.07377160	    -10.43109589	      0.02788975	      0.99511267	      0.28915413	    -17.97472616	      2.31713228	     -0.04612327	    -12.48372685	      3.84779537	     -3.47572630	     11.17651730	     21.03870402	     -8.71030263	    -11.55950754	     -8.08292961	     -0.46945419	    -13.00732125	     -9.13625902	    -11.61703240	      4.11357121	     12.76633058
      1.15816667	      1.16802575	     -4.90758910	    -10.41971651	      0.03401389	      0.99540688	      0.28869616	    -17.86525857	      2.04981524	     -0.15904492	    -13.25613602	      3.28948932	     -3.51845115	     11.22913909	     20.98681260	     -8.51602738	    -11.64240883	     -8.61067608	     -0.86840270	    -13.14826185	     -9.11978049	    -11.55973505	      3.86096336	     12.77026648
      1.16233333	      1.16758199	     -4.71315742	    -10.41252692	      0.04015185	      0.99573702	      0.28819879	    -17.68369088	      1.75296974	     -0.29638127	    -14.12343081	      2.73560906	     -3.58983158	     11.31609569	     20.92233536	     -8.28644451	    -11.70125758	     -9.07810190	     -1.25459269	    -13.34296126	     -9.09499578	    -11.48056173	      3.58755376	     12.76624219
